<?xml version="1.0" encoding="UTF-8"?>
<svg id="Capa_2" data-name="Capa 2" xmlns="http://www.w3.org/2000/svg" xmlns:xlink="http://www.w3.org/1999/xlink" viewBox="0 0 468 108.5">
  <defs>
    <style>
      .cls-1, .cls-2 {
        fill: #c9c9c9;
      }

      .cls-2 {
        font-family: MilkyNiceClean, 'Milky Nice';
        font-size: 56.31px;
      }

      .cls-3 {
        fill: url(#Degradado_sin_nombre_59);
      }
    </style>
    <linearGradient id="Degradado_sin_nombre_59" data-name="Degradado sin nombre 59" x1="0" y1="54.25" x2="468" y2="54.25" gradientUnits="userSpaceOnUse">
      <stop offset="0" stop-color="#00a19a"/>
      <stop offset="1" stop-color="#007e7d"/>
    </linearGradient>
  </defs>
  <g id="Capa_1-2" data-name="Capa 1">
    <g>
      <rect class="cls-3" x="0" y="0" width="468" height="108.5" rx="54.25" ry="54.25"/>
      <text class="cls-2" transform="translate(142.68 73.07)"><tspan x="0" y="0">WhatsApp</tspan></text>
      <path id="WhatsApp" class="cls-1" d="m118.59,53.44c0,17.01-13.89,30.79-31.03,30.79-5.44,0-10.55-1.39-15-3.83l-17.18,5.46,5.6-16.52c-2.83-4.64-4.45-10.08-4.45-15.9,0-17.01,13.89-30.79,31.03-30.79s31.03,13.79,31.03,30.79Zm-31.03-25.89c-14.39,0-26.09,11.61-26.09,25.89,0,5.66,1.85,10.91,4.97,15.18l-3.26,9.61,10.03-3.19c4.12,2.7,9.05,4.28,14.35,4.28,14.38,0,26.09-11.61,26.09-25.89s-11.7-25.89-26.09-25.89Zm15.67,32.98c-.19-.31-.7-.5-1.46-.88-.76-.38-4.5-2.2-5.2-2.45-.7-.25-1.21-.38-1.71.38-.51.76-1.96,2.45-2.41,2.96-.44.5-.89.57-1.65.19-.76-.38-3.21-1.17-6.12-3.75-2.26-2-3.79-4.47-4.23-5.23-.44-.75-.05-1.16.33-1.54.34-.34.76-.88,1.14-1.32.38-.44.51-.75.76-1.26.25-.5.13-.94-.06-1.32-.19-.38-1.71-4.09-2.35-5.6-.63-1.51-1.27-1.26-1.71-1.26s-.95-.06-1.46-.06-1.33.19-2.03.94c-.7.76-2.66,2.58-2.66,6.29s2.72,7.3,3.11,7.8c.38.5,5.26,8.37,12.99,11.39,7.73,3.02,7.73,2.01,9.13,1.89,1.39-.13,4.5-1.83,5.14-3.59.63-1.76.63-3.27.44-3.59Z"/>
    </g>
  </g>
</svg>